<mxfile host="app.diagrams.net" agent="Mozilla/5.0 (Windows NT 10.0; Win64; x64) AppleWebKit/537.36 (KHTML, like Gecko) Chrome/131.0.0.0 Safari/537.36" version="25.0.3">
  <diagram name="第 1 页" id="3UHkAFopRm-7_r5-lG0c">
    <mxGraphModel dx="794" dy="466" grid="1" gridSize="10" guides="1" tooltips="1" connect="1" arrows="1" fold="1" page="1" pageScale="1" pageWidth="827" pageHeight="1169" math="0" shadow="0">
      <root>
        <mxCell id="0" />
        <mxCell id="1" parent="0" />
        <mxCell id="ziDhsi5ca6AwWpdhWzap-1" value="" style="rounded=0;whiteSpace=wrap;html=1;" vertex="1" parent="1">
          <mxGeometry x="80" y="30" width="560" height="280" as="geometry" />
        </mxCell>
        <mxCell id="ziDhsi5ca6AwWpdhWzap-2" value="Tailscale" style="text;html=1;align=center;verticalAlign=middle;whiteSpace=wrap;rounded=0;fillColor=#fff2cc;strokeColor=#d6b656;" vertex="1" parent="1">
          <mxGeometry x="320" y="40" width="80" height="30" as="geometry" />
        </mxCell>
        <mxCell id="ziDhsi5ca6AwWpdhWzap-3" value="" style="shape=process;whiteSpace=wrap;html=1;backgroundOutline=1;" vertex="1" parent="1">
          <mxGeometry x="100" y="90" width="170" height="100" as="geometry" />
        </mxCell>
        <mxCell id="ziDhsi5ca6AwWpdhWzap-4" value="" style="shape=process;whiteSpace=wrap;html=1;backgroundOutline=1;" vertex="1" parent="1">
          <mxGeometry x="100" y="230" width="170" height="50" as="geometry" />
        </mxCell>
        <mxCell id="ziDhsi5ca6AwWpdhWzap-5" value="" style="shape=process;whiteSpace=wrap;html=1;backgroundOutline=1;" vertex="1" parent="1">
          <mxGeometry x="500" y="135" width="120" height="70" as="geometry" />
        </mxCell>
        <mxCell id="ziDhsi5ca6AwWpdhWzap-6" value="远端电脑" style="text;html=1;align=center;verticalAlign=middle;whiteSpace=wrap;rounded=0;fillColor=#d5e8d4;strokeColor=#82b366;" vertex="1" parent="1">
          <mxGeometry x="155" y="100" width="60" height="20" as="geometry" />
        </mxCell>
        <mxCell id="ziDhsi5ca6AwWpdhWzap-7" value="本地电脑" style="text;html=1;align=center;verticalAlign=middle;whiteSpace=wrap;rounded=0;fillColor=#d5e8d4;strokeColor=#82b366;" vertex="1" parent="1">
          <mxGeometry x="530" y="145" width="60" height="20" as="geometry" />
        </mxCell>
        <mxCell id="ziDhsi5ca6AwWpdhWzap-8" value="运行sunshine" style="text;html=1;align=center;verticalAlign=middle;whiteSpace=wrap;rounded=0;fillColor=#e1d5e7;strokeColor=#9673a6;" vertex="1" parent="1">
          <mxGeometry x="145" y="130" width="80" height="20" as="geometry" />
        </mxCell>
        <mxCell id="ziDhsi5ca6AwWpdhWzap-12" style="edgeStyle=orthogonalEdgeStyle;rounded=0;orthogonalLoop=1;jettySize=auto;html=1;exitX=0.5;exitY=1;exitDx=0;exitDy=0;" edge="1" parent="1" source="ziDhsi5ca6AwWpdhWzap-9" target="ziDhsi5ca6AwWpdhWzap-4">
          <mxGeometry relative="1" as="geometry" />
        </mxCell>
        <mxCell id="ziDhsi5ca6AwWpdhWzap-9" value="运行ParsecVDisplay" style="text;html=1;align=center;verticalAlign=middle;whiteSpace=wrap;rounded=0;fillColor=#ffe6cc;strokeColor=#d79b00;" vertex="1" parent="1">
          <mxGeometry x="125" y="160" width="120" height="20" as="geometry" />
        </mxCell>
        <mxCell id="ziDhsi5ca6AwWpdhWzap-10" value="运行moonlight" style="text;html=1;align=center;verticalAlign=middle;whiteSpace=wrap;rounded=0;fillColor=#e1d5e7;strokeColor=#9673a6;" vertex="1" parent="1">
          <mxGeometry x="515" y="175" width="90" height="20" as="geometry" />
        </mxCell>
        <mxCell id="ziDhsi5ca6AwWpdhWzap-16" value="远端电脑分屏" style="text;html=1;align=center;verticalAlign=middle;whiteSpace=wrap;rounded=0;fillColor=#d5e8d4;strokeColor=#82b366;" vertex="1" parent="1">
          <mxGeometry x="155" y="245" width="75" height="20" as="geometry" />
        </mxCell>
        <mxCell id="ziDhsi5ca6AwWpdhWzap-17" value="诱骗" style="text;html=1;align=center;verticalAlign=middle;whiteSpace=wrap;rounded=0;fillColor=#dae8fc;strokeColor=#6c8ebf;" vertex="1" parent="1">
          <mxGeometry x="190" y="205" width="60" height="20" as="geometry" />
        </mxCell>
        <mxCell id="ziDhsi5ca6AwWpdhWzap-18" value="" style="endArrow=classic;html=1;rounded=0;exitX=1;exitY=0.25;exitDx=0;exitDy=0;entryX=0;entryY=0.5;entryDx=0;entryDy=0;" edge="1" parent="1" source="ziDhsi5ca6AwWpdhWzap-4" target="ziDhsi5ca6AwWpdhWzap-5">
          <mxGeometry width="50" height="50" relative="1" as="geometry">
            <mxPoint x="380" y="170" as="sourcePoint" />
            <mxPoint x="430" y="120" as="targetPoint" />
          </mxGeometry>
        </mxCell>
        <mxCell id="ziDhsi5ca6AwWpdhWzap-19" value="" style="endArrow=none;dashed=1;html=1;dashPattern=1 3;strokeWidth=2;rounded=0;exitX=1;exitY=0.5;exitDx=0;exitDy=0;" edge="1" parent="1" source="ziDhsi5ca6AwWpdhWzap-8">
          <mxGeometry width="50" height="50" relative="1" as="geometry">
            <mxPoint x="380" y="170" as="sourcePoint" />
            <mxPoint x="340" y="220" as="targetPoint" />
          </mxGeometry>
        </mxCell>
        <mxCell id="ziDhsi5ca6AwWpdhWzap-20" value="串流" style="text;html=1;align=center;verticalAlign=middle;whiteSpace=wrap;rounded=0;fillColor=#dae8fc;strokeColor=#6c8ebf;" vertex="1" parent="1">
          <mxGeometry x="330" y="185" width="60" height="20" as="geometry" />
        </mxCell>
      </root>
    </mxGraphModel>
  </diagram>
</mxfile>
